<mxfile host="Electron" modified="2024-05-02T14:07:23.159Z" agent="Mozilla/5.0 (Windows NT 10.0; Win64; x64) AppleWebKit/537.36 (KHTML, like Gecko) draw.io/24.2.5 Chrome/120.0.6099.109 Electron/28.1.0 Safari/537.36" etag="zUZPS6vYHlpe6UTkYWQw" version="24.2.5" type="device">
  <diagram name="Organization" id="ynN78oTgX0Px0Qc10VjR">
    <mxGraphModel dx="2836" dy="1640" grid="1" gridSize="10" guides="1" tooltips="1" connect="1" arrows="1" fold="1" page="1" pageScale="1.5" pageWidth="827" pageHeight="1169" math="0" shadow="0">
      <root>
        <mxCell id="0" />
        <mxCell id="1" parent="0" />
        <mxCell id="iBzqbrWYD7J2i10mPG2j-7" value="" style="whiteSpace=wrap;html=1;fillColor=none;dashed=1;dashPattern=8 8;rounded=1;arcSize=2;strokeColor=#8C4FFF;strokeWidth=4;" parent="1" vertex="1">
          <mxGeometry x="290" y="472" width="1020" height="810" as="geometry" />
        </mxCell>
        <mxCell id="TYMXvzNvSo3Lo1fEAk2X-23" value="Private&lt;br style=&quot;font-size: 22px;&quot;&gt;ETH1" style="text;strokeColor=none;align=center;fillColor=none;html=1;verticalAlign=middle;whiteSpace=wrap;rounded=0;fontSize=22;" vertex="1" parent="1">
          <mxGeometry x="997" y="1062" width="80" height="56" as="geometry" />
        </mxCell>
        <mxCell id="iBzqbrWYD7J2i10mPG2j-3" value="ADMIN" style="html=1;whiteSpace=wrap;strokeColor=#8C4FFF;fontSize=30;" parent="1" vertex="1">
          <mxGeometry x="395" y="524" width="210" height="140" as="geometry" />
        </mxCell>
        <mxCell id="iBzqbrWYD7J2i10mPG2j-4" value="ETH1&#xa;22, 80, 443" style="fontStyle=0;labelPosition=right;verticalLabelPosition=middle;align=left;verticalAlign=middle;spacingLeft=15;strokeColor=#8C4FFF;spacing=0;spacingBottom=5;fontSize=22;" parent="1" vertex="1">
          <mxGeometry x="605" y="574" width="30" height="30" as="geometry" />
        </mxCell>
        <mxCell id="iBzqbrWYD7J2i10mPG2j-5" value="BACKUPS" style="html=1;whiteSpace=wrap;strokeColor=#8C4FFF;fontSize=30;" parent="1" vertex="1">
          <mxGeometry x="395" y="724" width="210" height="140" as="geometry" />
        </mxCell>
        <mxCell id="iBzqbrWYD7J2i10mPG2j-6" value="ETH1&#xa;21, 22" style="fontStyle=0;labelPosition=right;verticalLabelPosition=middle;align=left;verticalAlign=middle;spacingLeft=15;strokeColor=#8C4FFF;fontSize=22;spacing=0;spacingBottom=5;spacingTop=0;" parent="1" vertex="1">
          <mxGeometry x="605" y="780" width="30" height="30" as="geometry" />
        </mxCell>
        <mxCell id="TYMXvzNvSo3Lo1fEAk2X-8" style="edgeStyle=orthogonalEdgeStyle;rounded=0;orthogonalLoop=1;jettySize=auto;html=1;entryX=1;entryY=0.5;entryDx=0;entryDy=0;strokeColor=#8C4FFF;strokeWidth=2;" edge="1" parent="1" source="iBzqbrWYD7J2i10mPG2j-8" target="iBzqbrWYD7J2i10mPG2j-4">
          <mxGeometry relative="1" as="geometry">
            <Array as="points">
              <mxPoint x="910" y="695" />
              <mxPoint x="910" y="589" />
            </Array>
          </mxGeometry>
        </mxCell>
        <mxCell id="TYMXvzNvSo3Lo1fEAk2X-9" style="edgeStyle=orthogonalEdgeStyle;rounded=0;orthogonalLoop=1;jettySize=auto;html=1;entryX=1;entryY=0.5;entryDx=0;entryDy=0;strokeColor=#8C4FFF;strokeWidth=2;" edge="1" parent="1" source="iBzqbrWYD7J2i10mPG2j-8" target="iBzqbrWYD7J2i10mPG2j-6">
          <mxGeometry relative="1" as="geometry">
            <Array as="points">
              <mxPoint x="910" y="695" />
              <mxPoint x="910" y="795" />
            </Array>
          </mxGeometry>
        </mxCell>
        <mxCell id="iBzqbrWYD7J2i10mPG2j-8" value="" style="sketch=0;outlineConnect=0;fontColor=#232F3E;gradientColor=none;fillColor=#8C4FFF;strokeColor=none;dashed=0;verticalLabelPosition=bottom;verticalAlign=top;align=center;html=1;fontSize=12;fontStyle=0;aspect=fixed;pointerEvents=1;shape=mxgraph.aws4.customer_gateway;" parent="1" vertex="1">
          <mxGeometry x="1161" y="621" width="148" height="148" as="geometry" />
        </mxCell>
        <mxCell id="TYMXvzNvSo3Lo1fEAk2X-2" value="Public&#xa;ETH0" style="fontStyle=0;labelPosition=right;verticalLabelPosition=middle;align=left;verticalAlign=middle;spacingLeft=14;strokeColor=#8C4FFF;fontSize=22;spacing=0;spacingBottom=5;" vertex="1" parent="1">
          <mxGeometry x="1309" y="679" width="30" height="30" as="geometry" />
        </mxCell>
        <mxCell id="TYMXvzNvSo3Lo1fEAk2X-5" style="edgeStyle=orthogonalEdgeStyle;rounded=0;orthogonalLoop=1;jettySize=auto;html=1;entryX=1;entryY=0.5;entryDx=0;entryDy=0;strokeWidth=2;strokeColor=#FF78DF;" edge="1" parent="1" source="TYMXvzNvSo3Lo1fEAk2X-4" target="iBzqbrWYD7J2i10mPG2j-6">
          <mxGeometry relative="1" as="geometry">
            <Array as="points">
              <mxPoint x="909" y="795" />
            </Array>
          </mxGeometry>
        </mxCell>
        <mxCell id="TYMXvzNvSo3Lo1fEAk2X-6" style="edgeStyle=orthogonalEdgeStyle;rounded=0;orthogonalLoop=1;jettySize=auto;html=1;entryX=1;entryY=0.5;entryDx=0;entryDy=0;fontColor=#FF66FF;strokeColor=#FF78DF;strokeWidth=2;" edge="1" parent="1" source="TYMXvzNvSo3Lo1fEAk2X-4" target="iBzqbrWYD7J2i10mPG2j-4">
          <mxGeometry relative="1" as="geometry">
            <Array as="points">
              <mxPoint x="909" y="589" />
            </Array>
          </mxGeometry>
        </mxCell>
        <mxCell id="TYMXvzNvSo3Lo1fEAk2X-4" value="" style="verticalLabelPosition=bottom;sketch=0;html=1;fillColor=#A153A0;strokeColor=#ffffff;verticalAlign=top;align=center;points=[[0,0.5,0],[0.125,0.25,0],[0.25,0,0],[0.5,0,0],[0.75,0,0],[0.875,0.25,0],[1,0.5,0],[0.875,0.75,0],[0.75,1,0],[0.5,1,0],[0.125,0.75,0]];pointerEvents=1;shape=mxgraph.cisco_safe.compositeIcon;bgIcon=mxgraph.cisco_safe.design.blank_device;resIcon=mxgraph.cisco_safe.design.access_switch_2;aspect=fixed;" vertex="1" parent="1">
          <mxGeometry x="859" y="882" width="100" height="90" as="geometry" />
        </mxCell>
        <mxCell id="TYMXvzNvSo3Lo1fEAk2X-11" value="Private" style="text;strokeColor=none;align=center;fillColor=none;html=1;verticalAlign=middle;whiteSpace=wrap;rounded=0;fontSize=22;" vertex="1" parent="1">
          <mxGeometry x="1093" y="664" width="60" height="30" as="geometry" />
        </mxCell>
        <mxCell id="TYMXvzNvSo3Lo1fEAk2X-12" value="ETH1" style="text;strokeColor=none;align=center;fillColor=none;html=1;verticalAlign=middle;whiteSpace=wrap;rounded=0;fontSize=22;" vertex="1" parent="1">
          <mxGeometry x="1087" y="697" width="60" height="30" as="geometry" />
        </mxCell>
        <mxCell id="TYMXvzNvSo3Lo1fEAk2X-13" value="Gateway" style="text;strokeColor=none;align=center;fillColor=none;html=1;verticalAlign=middle;whiteSpace=wrap;rounded=0;fontSize=22;" vertex="1" parent="1">
          <mxGeometry x="1186" y="588" width="96" height="30" as="geometry" />
        </mxCell>
        <mxCell id="TYMXvzNvSo3Lo1fEAk2X-14" value="Tunnelling" style="text;strokeColor=none;align=center;fillColor=none;html=1;verticalAlign=middle;whiteSpace=wrap;rounded=0;fontSize=22;" vertex="1" parent="1">
          <mxGeometry x="1173" y="773" width="127" height="30" as="geometry" />
        </mxCell>
        <mxCell id="TYMXvzNvSo3Lo1fEAk2X-15" value="Switch" style="text;strokeColor=none;align=center;fillColor=none;html=1;verticalAlign=middle;whiteSpace=wrap;rounded=0;fontSize=22;" vertex="1" parent="1">
          <mxGeometry x="1008" y="835" width="127" height="30" as="geometry" />
        </mxCell>
        <mxCell id="TYMXvzNvSo3Lo1fEAk2X-41" style="rounded=0;orthogonalLoop=1;jettySize=auto;html=1;startArrow=classic;startFill=1;strokeWidth=3;dashed=1;entryX=0;entryY=1;entryDx=0;entryDy=0;exitX=0.773;exitY=-0.016;exitDx=0;exitDy=0;exitPerimeter=0;" edge="1" parent="1" source="TYMXvzNvSo3Lo1fEAk2X-19" target="TYMXvzNvSo3Lo1fEAk2X-30">
          <mxGeometry relative="1" as="geometry" />
        </mxCell>
        <mxCell id="TYMXvzNvSo3Lo1fEAk2X-19" value="" style="sketch=0;pointerEvents=1;shadow=0;dashed=0;html=1;strokeColor=none;fillColor=#0db7ed;aspect=fixed;labelPosition=center;verticalLabelPosition=bottom;verticalAlign=top;align=center;outlineConnect=0;shape=mxgraph.vvd.site_container;" vertex="1" parent="1">
          <mxGeometry x="1112" y="989" width="200" height="202.03" as="geometry" />
        </mxCell>
        <mxCell id="TYMXvzNvSo3Lo1fEAk2X-21" value="" style="fontStyle=0;labelPosition=right;verticalLabelPosition=middle;align=left;verticalAlign=middle;spacingLeft=2;flipH=0;flipV=0;strokeColor=#0DB7ED;strokeWidth=2;" vertex="1" parent="1">
          <mxGeometry x="1084" y="1075" width="30" height="30" as="geometry" />
        </mxCell>
        <mxCell id="TYMXvzNvSo3Lo1fEAk2X-22" value="" style="fontStyle=0;labelPosition=right;verticalLabelPosition=middle;align=left;verticalAlign=middle;spacingLeft=2;flipH=0;flipV=0;strokeColor=#0DB7ED;strokeWidth=2;" vertex="1" parent="1">
          <mxGeometry x="1311" y="1033" width="30" height="30" as="geometry" />
        </mxCell>
        <mxCell id="TYMXvzNvSo3Lo1fEAk2X-24" value="Public&lt;br&gt;ETH0&lt;br&gt;80, 443" style="text;strokeColor=none;align=left;fillColor=none;html=1;verticalAlign=middle;whiteSpace=wrap;rounded=0;fontSize=22;spacingLeft=5;" vertex="1" parent="1">
          <mxGeometry x="1342" y="1020" width="90" height="56" as="geometry" />
        </mxCell>
        <mxCell id="TYMXvzNvSo3Lo1fEAk2X-25" value="Host&lt;br&gt;Instances" style="text;strokeColor=none;align=center;fillColor=none;html=1;verticalAlign=middle;whiteSpace=wrap;rounded=0;fontSize=22;" vertex="1" parent="1">
          <mxGeometry x="1173" y="1197" width="80" height="56" as="geometry" />
        </mxCell>
        <mxCell id="TYMXvzNvSo3Lo1fEAk2X-26" style="edgeStyle=orthogonalEdgeStyle;rounded=0;orthogonalLoop=1;jettySize=auto;html=1;entryX=0.474;entryY=0.951;entryDx=0;entryDy=0;entryPerimeter=0;strokeWidth=2;strokeColor=#0DB7ED;exitX=0;exitY=0.5;exitDx=0;exitDy=0;" edge="1" parent="1" source="TYMXvzNvSo3Lo1fEAk2X-21" target="TYMXvzNvSo3Lo1fEAk2X-4">
          <mxGeometry relative="1" as="geometry">
            <Array as="points">
              <mxPoint x="906" y="1090" />
            </Array>
          </mxGeometry>
        </mxCell>
        <mxCell id="TYMXvzNvSo3Lo1fEAk2X-28" style="edgeStyle=orthogonalEdgeStyle;rounded=0;orthogonalLoop=1;jettySize=auto;html=1;entryX=1;entryY=0.5;entryDx=0;entryDy=0;exitX=0;exitY=0.5;exitDx=0;exitDy=0;" edge="1" parent="1" source="TYMXvzNvSo3Lo1fEAk2X-30" target="TYMXvzNvSo3Lo1fEAk2X-2">
          <mxGeometry relative="1" as="geometry">
            <mxPoint x="1659.000009861933" y="694.4615384615383" as="sourcePoint" />
          </mxGeometry>
        </mxCell>
        <mxCell id="TYMXvzNvSo3Lo1fEAk2X-30" value="" style="shape=image;imageAspect=0;aspect=fixed;verticalLabelPosition=bottom;verticalAlign=top;image=data:image/jpeg,/9j/4AAQSkZJRgABAQEBLAEsAAD//gATQ3JlYXRlZCB3aXRoIEdJTVD/4hAISUNDX1BST0ZJTEUAAQEAAA/4YXBwbAIQAABtbnRyUkdCIFhZWiAH5QAJABQADQAcAAhhY3NwQVBQTAAAAABBUFBMAAAAAAAAAAAAAAAAAAAAAAAA9tYAAQAAAADTLWFwcGwAAAAAAAAAAAAAAAAAAAAAAAAAAAAAAAAAAAAAAAAAAAAAAAAAAAAAAAAAAAAAABJkZXNjAAABXAAAAGJkc2NtAAABwAAABJxjcHJ0AAAGXAAAACN3dHB0AAAGgAAAABRyWFlaAAAGlAAAABRnWFlaAAAGqAAAABRiWFlaAAAGvAAAABRyVFJDAAAG0AAACAxhYXJnAAAO3AAAACB2Y2d0AAAO/AAAADBuZGluAAAPLAAAAD5jaGFkAAAPbAAAACxtbW9kAAAPmAAAACh2Y2dwAAAPwAAAADhiVFJDAAAG0AAACAxnVFJDAAAG0AAACAxhYWJnAAAO3AAAACBhYWdnAAAO3AAAACBkZXNjAAAAAAAAAAhEaXNwbGF5AAAAAAAAAAAAAAAAAAAAAAAAAAAAAAAAAAAAAAAAAAAAAAAAAAAAAAAAAAAAAAAAAAAAAAAAAAAAAAAAAAAAAAAAAAAAAAAAAAAAAAAAAAAAbWx1YwAAAAAAAAAmAAAADGhySFIAAAAUAAAB2GtvS1IAAAAMAAAB7G5iTk8AAAASAAAB+GlkAAAAAAASAAACCmh1SFUAAAAUAAACHGNzQ1oAAAAWAAACMGRhREsAAAAcAAACRm5sTkwAAAAWAAACYmZpRkkAAAAQAAACeGl0SVQAAAAYAAACiGVzRVMAAAAWAAACoHJvUk8AAAASAAACtmZyQ0EAAAAWAAACyGFyAAAAAAAUAAAC3nVrVUEAAAAcAAAC8mhlSUwAAAAWAAADDnpoVFcAAAAKAAADJHZpVk4AAAAOAAADLnNrU0sAAAAWAAADPHpoQ04AAAAKAAADJHJ1UlUAAAAkAAADUmVuR0IAAAAUAAADdmZyRlIAAAAWAAADim1zAAAAAAASAAADoGhpSU4AAAASAAADsnRoVEgAAAAMAAADxGNhRVMAAAAYAAAD0GVuQVUAAAAUAAADdmVzWEwAAAASAAACtmRlREUAAAAQAAAD6GVuVVMAAAASAAAD+HB0QlIAAAAYAAAECnBsUEwAAAASAAAEImVsR1IAAAAiAAAENHN2U0UAAAAQAAAEVnRyVFIAAAAUAAAEZnB0UFQAAAAWAAAEemphSlAAAAAMAAAEkABMAEMARAAgAHUAIABiAG8AagBpzuy37AAgAEwAQwBEAEYAYQByAGcAZQAtAEwAQwBEAEwAQwBEACAAVwBhAHIAbgBhAFMAegDtAG4AZQBzACAATABDAEQAQgBhAHIAZQB2AG4A/QAgAEwAQwBEAEwAQwBEAC0AZgBhAHIAdgBlAHMAawDmAHIAbQBLAGwAZQB1AHIAZQBuAC0ATABDAEQAVgDkAHIAaQAtAEwAQwBEAEwAQwBEACAAYQAgAGMAbwBsAG8AcgBpAEwAQwBEACAAYQAgAGMAbwBsAG8AcgBMAEMARAAgAGMAbwBsAG8AcgBBAEMATAAgAGMAbwB1AGwAZQB1AHIgDwBMAEMARAAgBkUGRAZIBkYGKQQaBD4EOwRMBD4EQAQ+BDIEOAQ5ACAATABDAEQgDwBMAEMARAAgBeYF0QXiBdUF4AXZX2mCcgBMAEMARABMAEMARAAgAE0A4AB1AEYAYQByAGUAYgBuAP0AIABMAEMARAQmBDIENQRCBD0EPgQ5ACAEFgQaAC0ENAQ4BEEEPwQ7BDUEOQBDAG8AbABvAHUAcgAgAEwAQwBEAEwAQwBEACAAYwBvAHUAbABlAHUAcgBXAGEAcgBuAGEAIABMAEMARAkwCQIJFwlACSgAIABMAEMARABMAEMARAAgDioONQBMAEMARAAgAGUAbgAgAGMAbwBsAG8AcgBGAGEAcgBiAC0ATABDAEQAQwBvAGwAbwByACAATABDAEQATABDAEQAIABDAG8AbABvAHIAaQBkAG8ASwBvAGwAbwByACAATABDAEQDiAOzA8cDwQPJA7wDtwAgA78DuAPMA70DtwAgAEwAQwBEAEYA5AByAGcALQBMAEMARABSAGUAbgBrAGwAaQAgAEwAQwBEAEwAQwBEACAAYQAgAEMAbwByAGUAczCrMOkw/ABMAEMARHRleHQAAAAAQ29weXJpZ2h0IEFwcGxlIEluYy4sIDIwMjEAAFhZWiAAAAAAAADzUQABAAAAARbMWFlaIAAAAAAAAIPfAAA9v////7tYWVogAAAAAAAASr8AALE3AAAKuVhZWiAAAAAAAAAoOAAAEQsAAMi5Y3VydgAAAAAAAAQAAAAABQAKAA8AFAAZAB4AIwAoAC0AMgA2ADsAQABFAEoATwBUAFkAXgBjAGgAbQByAHcAfACBAIYAiwCQAJUAmgCfAKMAqACtALIAtwC8AMEAxgDLANAA1QDbAOAA5QDrAPAA9gD7AQEBBwENARMBGQEfASUBKwEyATgBPgFFAUwBUgFZAWABZwFuAXUBfAGDAYsBkgGaAaEBqQGxAbkBwQHJAdEB2QHhAekB8gH6AgMCDAIUAh0CJgIvAjgCQQJLAlQCXQJnAnECegKEAo4CmAKiAqwCtgLBAssC1QLgAusC9QMAAwsDFgMhAy0DOANDA08DWgNmA3IDfgOKA5YDogOuA7oDxwPTA+AD7AP5BAYEEwQgBC0EOwRIBFUEYwRxBH4EjASaBKgEtgTEBNME4QTwBP4FDQUcBSsFOgVJBVgFZwV3BYYFlgWmBbUFxQXVBeUF9gYGBhYGJwY3BkgGWQZqBnsGjAadBq8GwAbRBuMG9QcHBxkHKwc9B08HYQd0B4YHmQesB78H0gflB/gICwgfCDIIRghaCG4IggiWCKoIvgjSCOcI+wkQCSUJOglPCWQJeQmPCaQJugnPCeUJ+woRCicKPQpUCmoKgQqYCq4KxQrcCvMLCwsiCzkLUQtpC4ALmAuwC8gL4Qv5DBIMKgxDDFwMdQyODKcMwAzZDPMNDQ0mDUANWg10DY4NqQ3DDd4N+A4TDi4OSQ5kDn8Omw62DtIO7g8JDyUPQQ9eD3oPlg+zD88P7BAJECYQQxBhEH4QmxC5ENcQ9RETETERTxFtEYwRqhHJEegSBxImEkUSZBKEEqMSwxLjEwMTIxNDE2MTgxOkE8UT5RQGFCcUSRRqFIsUrRTOFPAVEhU0FVYVeBWbFb0V4BYDFiYWSRZsFo8WshbWFvoXHRdBF2UXiReuF9IX9xgbGEAYZRiKGK8Y1Rj6GSAZRRlrGZEZtxndGgQaKhpRGncanhrFGuwbFBs7G2MbihuyG9ocAhwqHFIcexyjHMwc9R0eHUcdcB2ZHcMd7B4WHkAeah6UHr4e6R8THz4faR+UH78f6iAVIEEgbCCYIMQg8CEcIUghdSGhIc4h+yInIlUigiKvIt0jCiM4I2YjlCPCI/AkHyRNJHwkqyTaJQklOCVoJZclxyX3JicmVyaHJrcm6CcYJ0kneierJ9woDSg/KHEooijUKQYpOClrKZ0p0CoCKjUqaCqbKs8rAis2K2krnSvRLAUsOSxuLKIs1y0MLUEtdi2rLeEuFi5MLoIuty7uLyQvWi+RL8cv/jA1MGwwpDDbMRIxSjGCMbox8jIqMmMymzLUMw0zRjN/M7gz8TQrNGU0njTYNRM1TTWHNcI1/TY3NnI2rjbpNyQ3YDecN9c4FDhQOIw4yDkFOUI5fzm8Ofk6Njp0OrI67zstO2s7qjvoPCc8ZTykPOM9Ij1hPaE94D4gPmA+oD7gPyE/YT+iP+JAI0BkQKZA50EpQWpBrEHuQjBCckK1QvdDOkN9Q8BEA0RHRIpEzkUSRVVFmkXeRiJGZ0arRvBHNUd7R8BIBUhLSJFI10kdSWNJqUnwSjdKfUrESwxLU0uaS+JMKkxyTLpNAk1KTZNN3E4lTm5Ot08AT0lPk0/dUCdQcVC7UQZRUFGbUeZSMVJ8UsdTE1NfU6pT9lRCVI9U21UoVXVVwlYPVlxWqVb3V0RXklfgWC9YfVjLWRpZaVm4WgdaVlqmWvVbRVuVW+VcNVyGXNZdJ114XcleGl5sXr1fD19hX7NgBWBXYKpg/GFPYaJh9WJJYpxi8GNDY5dj62RAZJRk6WU9ZZJl52Y9ZpJm6Gc9Z5Nn6Wg/aJZo7GlDaZpp8WpIap9q92tPa6dr/2xXbK9tCG1gbbluEm5rbsRvHm94b9FwK3CGcOBxOnGVcfByS3KmcwFzXXO4dBR0cHTMdSh1hXXhdj52m3b4d1Z3s3gReG54zHkqeYl553pGeqV7BHtje8J8IXyBfOF9QX2hfgF+Yn7CfyN/hH/lgEeAqIEKgWuBzYIwgpKC9INXg7qEHYSAhOOFR4Wrhg6GcobXhzuHn4gEiGmIzokziZmJ/opkisqLMIuWi/yMY4zKjTGNmI3/jmaOzo82j56QBpBukNaRP5GokhGSepLjk02TtpQglIqU9JVflcmWNJaflwqXdZfgmEyYuJkkmZCZ/JpomtWbQpuvnByciZz3nWSd0p5Anq6fHZ+Ln/qgaaDYoUehtqImopajBqN2o+akVqTHpTilqaYapoum/adup+CoUqjEqTepqaocqo+rAqt1q+msXKzQrUStuK4trqGvFq+LsACwdbDqsWCx1rJLssKzOLOutCW0nLUTtYq2AbZ5tvC3aLfguFm40blKucK6O7q1uy67p7whvJu9Fb2Pvgq+hL7/v3q/9cBwwOzBZ8Hjwl/C28NYw9TEUcTOxUvFyMZGxsPHQce/yD3IvMk6ybnKOMq3yzbLtsw1zLXNNc21zjbOts83z7jQOdC60TzRvtI/0sHTRNPG1EnUy9VO1dHWVdbY11zX4Nhk2OjZbNnx2nba+9uA3AXcit0Q3ZbeHN6i3ynfr+A24L3hROHM4lPi2+Nj4+vkc+T85YTmDeaW5x/nqegy6LzpRunQ6lvq5etw6/vshu0R7ZzuKO6070DvzPBY8OXxcvH/8ozzGfOn9DT0wvVQ9d72bfb794r4Gfio+Tj5x/pX+uf7d/wH/Jj9Kf26/kv+3P9t//9wYXJhAAAAAAADAAAAAmZmAADypwAADVkAABPQAAAKW3ZjZ3QAAAAAAAAAAQABAAAAAAAAAAEAAAABAAAAAAAAAAEAAAABAAAAAAAAAAEAAG5kaW4AAAAAAAAANgAArhQAAFHsAABD1wAAsKQAACZmAAAPXAAAUA0AAFQ5AAIzMwACMzMAAjMzAAAAAAAAAABzZjMyAAAAAAABDEIAAAXe///zJgAAB5MAAP2Q///7ov///aMAAAPcAADAbm1tb2QAAAAAAAAGEAAAoEX9Ym1iAAAAAAAAAAAAAAAAAAAAAAAAAAB2Y2dwAAAAAAADAAAAAmZmAAMAAAACZmYAAwAAAAJmZgAAAAIzMzQAAAAAAjMzNAAAAAACMzM0AP/bAEMAAwICAwICAwMDAwQDAwQFCAUFBAQFCgcHBggMCgwMCwoLCw0OEhANDhEOCwsQFhARExQVFRUMDxcYFhQYEhQVFP/bAEMBAwQEBQQFCQUFCRQNCw0UFBQUFBQUFBQUFBQUFBQUFBQUFBQUFBQUFBQUFBQUFBQUFBQUFBQUFBQUFBQUFBQUFP/CABEIAQACAAMBEQACEQEDEQH/xAAdAAEAAwEBAAMBAAAAAAAAAAAABwgGBQQJAgMB/8QAGwEBAAIDAQEAAAAAAAAAAAAAAAQFAwYCAQf/2gAMAwEAAhADEAAAAbUgAAAAAAAAAAAAAAAAAAAAAAAAAAAAAAAAAAAAAAAAAAAAAAAAAAAAAAAAAAAAAAAAAAAAAAAAAAAAAAAAAAAAAAAAAAAAAAAAAAAAAAAAAAAAAAAAAAAAAAAAAAAAAAAAAAAAAAAAAAAAAAAAAAAAAAAAAAAAAAAAAAAAAAAAAAAAAAAAAAAAAAAAAAAAAAAAAAAAAAAAAAAAAAAAAAAAAAAAAAAAAAAAAAAAAAAAAAAAAAAAAAAAAAAAAAAAAAAAAAAAAAAAAAAAAAAAAAAAAAAAAAAAAAAAAAAAAAAAAAAAAAAAAAAAAAAAAAAAAAAAAAAAAAAAAAAAAAAAAAAAAAAAAAAAAAAAAAAAA+pm5nAHrx+9uP0AAAAAAAAAAAAAAAAAAAAAAAAAAM5J4+/nugj9AQRscaou/VwFu9BsZ21yT/DB2GPe1+QAAAAAAAAAAAAAAAAAAAAAAAACsu3Q81M4t/os8eDvz4+/qdTwZfA3NXmvr8ytPuQ1ex6+7VEvP84swBFVxhycvh0mvX8+Ln8SVV5Rxc/OZlcaCN3oI/X4euJI40UbsARraYpKq8oAAAAhO+jyvS54qtcX0yc/TpOFBIAAAAAAFGvo1bGt1gvn8vtd5X5KxbfDrXuUEC8XzS02kDJycvNKvotdmpuP5JfkNz+wIwtsPMy+TFSZ/H15WXbokj1eXTQu9zAyV/2WLINZly8ziZ6GRxM3kUX0actblACu+0RbEavKAAAA/hXfaItidXlYOZxl5+PzdeTbRSAAAAAAB8f31Cqx9jikulz3C0Gw+P36nVeTLyJe16TcvQbD4/vqFVl5+MD5Ffktx3MHQrVtUSymqy/6CvW0RJt1uVA+zRbIarLrPtcScqCRD93glikz8jL5krPDMuvSYC2ON0cXUp0+WHb/AAT3rUmA9jjenj2TarLiLDHNVDIi+2w92P1Cl/H70bvNzsdpNNmgAAAAAAACh/0qsj63wDY1uXHWWIftx7f75bbRFex6sbxAA/r35JPj9x7PPRWraollNVl/0FetoiTprUqANniyrSZ8zN43dfkgfY40mVGXl5Xjz8dOP3s6/JrIfYrvtEXUw+93WZdJG6r9skb8u/LDaxKhy8wZmbjmbX5OjjdV12mLYrVpQAAAAAAAAqdusGv+2QwALC6lMs9p02iX0qsyFji/DvwbKsy3/wDmNqBF9vh52TyYaTP4+vKybdEtPp8zC2GOrW5QrsfPrDgS+Y+ssUz0MjiZvIovo2jg5Pbx7INZl8vXkB7LG3Fdk6uHraQO4F2OP5cnlidXlQXscbox+tDH631blr5s0WxGsSgAAAAAAABH9liod9PqzwDrR+/kG+V2vVxdZWXx8f8A9Tqfw78FotJn2P1SWAIquMOVl8fXpNVBn6+HoRDdYJepc/Ny85eXzuq/J4uvMbY499WZYO2CP5+vJdpc8c2eKWqXNDF9g8vfkzUWflZvInucPUw+zZQyIO2CP4u/Jmos/Zw9AAAAAAAAAVL3aDFF/HAsdp8yfdalCq25wod2KMO5E6vH84s/Zx6AAAAAAAAAAAAAAAAAAAAAAAAAAAAAAAAAAAAAAAAAAAAAAAAAAAAAAAAAAAAAAAAAAAAAAAAAAAAAAAAAAAAAAAAAAAAAAAAAAAAAAAAAAAAAAAAAAAAAAAAAAAAAAAAAAAAAAAAAAAAAAAAAAAAAAAAAAAAAAAAAAAAAAAAAAAAAAAAAAAAAAAAAAAAAAAAAAAAAAAAAAAAAAAAAAAAAAAAAAAAAAAAAAAAAAAAAAAAAAAAAAAAAAAAAAAAAAAAAAAAAAAAAAAAAAAAAAAAAAAAAAAAAAAAAAAAAAAAAAAAAAAAAAAAAAAAAAAAAAAAAAAAAAAAAAAAAAAAAAAAAAAAAAAAAAAAAAAAAAAAAAAAAAAAAAAAAAAAAAAAAAAAAAAAAAAAAAAAAAAAAAAAAP//EAC8QAAEDAwIDBgYDAQAAAAAAAAUGBAMCBwEAEBY2FRQgERIwQBMhMTU3UJAXJSb/2gAIAQEAAQUC/jMqqxRTxOG1xOG1xOG01Njn0v7ZQmKAIcCYiPCt7qKXp47e1ia6eN1nPhhMq1upXH7O8JX52tUnTSez97ENZHC8p0rsjU7lSG6KMR06uapOjh7eFcilT3FHcQeCmpWqod4oue6HzCyrUy0UiywnDGxonQGFJhTVGE4DONlCw1PNS3hBHmiiY9wArKzKh9JOm3rq4BJjUQbARzx8SaqmdovVMqXNCp9a47rLpX01ZoqRaiwpAersqTzVb2/TXDwR+bYC68rEJjCoO1qI1DNU3mhk+NDtcJRVp8CgEdCIH6ds4H7eGiu3S2ugH6km0UX62m9XYI11N3w2gQhbTcq6OfZbQctdxCc9+j9dJX8o6TrKdqT4YkJlHaTmYNfWWFWalTpAKTh04oDUQAQ7dyvnW1tk31sy4cRtG6lOSKExuCqzWE2udjD1S/Te8bamoY08pIRbmWsEotBv+tuSp+WraHxo1OcXhNF1UHlE2g5aevIh7RkSUq6lnAqwLGnC0hsShOe3ryIe0Zv1KupHYhWp6FJqWJUC1Aaetbg6uOSci01CcwzSIsMWuLiS3j1P4t0+kJLv2S/g7Or9i6peGRm0MNbiZLAaE4GuwpPgN98Y8cs4ezs9rnZwyUu943FNIwbD2YdcKKpPqZXHKRSXtcH6am1Py1b5GiTwH+s09opbkC2GWg5auo4zAk0m1pZprZCc93UcZgSabaUsU/pDU9PWqo/KWrrcqK6bMVrk23w1T+kp8roeyu+NzEV7tqE32l09c9iaFBhwsQmgkbS7I4bkqpd7hp2tQAUAsYTA/Tt5CwgirruMttLYP1tN4KzqtlBDQ2gU/LVpuVdHPstoOWrkMK36TQRWIomM58MNXcD2JD48i9uQwqfpNEloy6bmmobw248xQ2u5KRi5xnxxd17REAVgaSS3aDLxFkzLLRBHbr/VU/slyC4gT3cFDZTBEUNhED9KY5QnQ089bqfa0QLMcPcUVux52alFqhpim2LohMLFNQzTZPoCgIpdE2fURqNT0iZDafNu2MkUmq0sIzjFWHduJWj6tDHy2goVqAYHEO7lNw0Vdnc26nYvpEKcM6GDG4dkok61UrCFEKUZGItxmgnnHjh7beRs/kQR0xoQIbA2Ps7hIZzCU4YM64YM64YM6telJBkO1yurHCvDBnXDBnQVDlShJm0iYNf5LP/EACsRAAIBAwMDAwQDAQEAAAAAAAECABEDEhAhMjEgE1EEIjMwQEFCUJAjcf/aAAgBAwEBPwH/ADNzX1ma+szX1gYHof7dmxFYpyFey89BTsspQV1Vw9af2nuG/jLD0OOpNN47ZmutpM21vPisstRu17oXaZueizzU5CAg7iM+JA1JxFYj5LkYrBhUaqwYVHar5Ej7asfIVh3ig1O8z+ZBjuQwA+/ePz0ttmtdL7/x7LSYLCwHWZr6y42bVgNN+y62Cy3bxFT106z6T0/Rl5arLbZKDpfOwUfuMKIRLHDQ9J7fj22ubfbX6x0UbmYVLVhTYf8Av37vM6WXxaM2IrCamp1spka6O2bV7B01vbso7PccZ1lr4sU0X53a+kfiZZZQu5ma+sLrTrPb8Z0gL3NxsJjcHQ1imorLXNoTTeAvc3GwhFxdwaxHzFYzHyBdLpKrUTL45GANd3Y7TxFeBlo5XCfw73M6tcLADXrEXAUl96DH7F7ZlPZ7jjpd+LB47YrWWVosfiZatqy1M8KekNlPSe34y9wiCijW1zaXuEUUFNLezsI31hpe4R/pRRQAaL9Y/h+4G4PdYT+WjB2NaSlOutoVcdl1c1lu5kKfvTpPqvX9DS4uS0mXkCpo/Eyxw0PSe34y6KoZbNVGnWW+bS6KoZbbJQdLW5Zpc+Lq2l80Wkdf+dJbbJRpa+TM34dxc1p2quRpAKCg0ZsRWE131sLtl2vaDbzBx0aeEnkYAF2Gq28WLaEVFIi4CmttMBTTxUNUNJ42bk0VQooI1s5ZKdPFQ1Q0njZuTQAAUEZQ4oYLbr0aLa3yY108VDVDSeNm5NAAooPxL1s1qswb0mDekwb0llMRU63smNAJg3pMG9ItpmNDOn+lv//EAEARAAEDAQIKBgcGBgMAAAAAAAECAwQABRESEDFBEyFxFPBRkbEgwTRh0aEyU4EicjMVMEBCNVBSkOEjJETS8f/aAAgBAgEBPwH+mbucn3Sug1ucn3Sug1ucn3Sug0uO80MJaCBs/i8ZgyXktJz1IYVGdU0rN2LFh6Z3TKyJ6/7di2pmmd0KcievHKhORAgr/UOB/FLAYvK3zs9PdVtxNK3p05U9X9saEKcUEJymosdMVkNJx2jL3NgqHtHJjsiJvL+Gr2U8CrXY00VRzp18fDsxLLelDD9lPM0YEFvUuR0cGvuhDovjPBRp1pbC8BwXGosEymnHEnWnNjYaL7iWk56lxN3kbu2b8nrqRHXGXo3MuIC83CpEZyKvRujX2ZMLd2Gnb/a/DkRmkWe08kfMT6abWEKwiL9tSHG0touaT8w8+ZHOlw0qgIeR7Wu/zF/dUOG2qM467luN3wz9P49jICYaSM99EBQuNT4piPlvNm2YrDh/8pXw7/R09i05m9v3j2Rkpth137NJOytyk+7PQagxREYDefPtpaA4koVkPYsyKJcgJV7I1mrTnqkuFtB+QYkrUg4STcaURasErV9ojj19dWPI0MoA5FavRU9jdpK2xkzYrEaAWuSvIkceqmXS9OQ4rOoddW34s7BiZ+0Ttq3vEp+nvPZtPwcbZ3D8OV+1M7fTifWlSGgMw7zW9hpmPgaynCvG094puala3Vr1AoKQOofj2cAIjd3LFasTemL0+0nJUZhUl1LSc9NNpZQG0ZBjtmZoGdEn2ldVJSVHBTlqFFERgN58+3sPgB1QHM47IKm40h0cuoHsWAsh9aM13HXSgW13ZxVqgSY7UxOw8eRvxP8A+lZiWv1L49AqH4lr6h11a8Z5yVhIQSLuVblJ90roNNQ5IcTe2cvI1b3iU/T3mkILighOU06zCs4BDo0jnqHHF1CRZ75wXWcDzB476ktBh0oSrCHOrT8HG2dwpCFOKCE5TTjUKzhgOjSOeoUh+zpKsBxrAvzg8dVTIiobujVTEZpVnOvEfMD6PTistlD8pKHBeKVHwpRjt/zXeunn49lHQsIwljKTX3o3K+SY2LuYyirTaDNntoSbxf3H8nZJwoSPj1448BuM6t1H6vVjUoISVKyCpclUt4ungVYcTSL3hWQZNvZJvN+OyApyNIaHLrB7FgIJfWvNdx1UtWGoqqyzvUZ2Gdo423VCj7xJS0fjVsSNNKKRkTq9NQ/EtfUOurUtCTHkYDSrhsFfe83+f1D0U1a0xS0gr9Q9FW94lP095qxkYUxJ5X1MXpJLivM47T8HG2dwqxkYUxJ5X1Jc0ry18ycVoHSwo7vw46KjftL23/risbxifjUJOFaqzyKqkqw31q5k4pf7Uzt9P5OwHr21s8tfatyXcBGT8aQnDUE0w9EjtJaS4m4eYpK0uDCQbxjtJ3QxVn4dPYsuUIkjCV7J1GrTgKjOFxA+Q8XYkpUs4KReaUBZUEoV9ovj1deKBI3aSlw5M+yiwmA4/MOfJx5miSo3mofiWvqHXVt+LOwYmftE7at7xKfp7zVlOBqWgnPqq0mVMylhWc39OJSFINyhdVpHChRyOXcKspwNTEE59VT2CxJWkjZsoAqNwq1QGWWI2cDXx01ZwL8F9gbeOjFYTZVJK+QqFIAtAOq/UT66tFhTEpYOfX00ASbhVqf4IzEbPlPHT+Ts+TushKzkz7OzIeTHaU6rNTrqnllxeU4osdUp4NJpCEtpCE5Bjt2ThLEdObWeOMvZiWo9GGjPzJ5GjOgua1x+jgV97oaF0ZkJPOnXVvrw3Deccm01SIyWLsmXzxNOaJxLgzG+p0oTHi6BdiQrAUFVaEzfXdIBdquxJtULb0ctvD889C0IjGuOxr86ffckrLjh11HtBCWN2kIwk0br9VJtQONhuW3h3Z89JtGLHOFGY18yeOunXVvLLjhvJqLKciOaRulz4T5wnWNfkf8Ayn7Vva0EdGAnEi1cNvRS28Pzz0m0YsfXGY18zTzy5Cy44df5SybSRo9C+q7ByX8q3yN71PSK3yN71PSK3yN71PSKtmaH1hls3pHXjsfd47ZccWMJXmMlb5G96npFb5G96npFSbSYYaK0KCjyvpaitRUrKf6lv//EAE0QAAECAwMFCAwJDAMAAAAAAAIBAwQRAAUSIUExExAiUWHRwUKBICNSsZGyoXF0BhQ1MpRz4XJDYhUkMEBjkpOz8PEzUIKQ4jRUg8L/2gAIAQEABj8C/tmKRKgimKqtetoH3kOGvW0D7yHDXraB95DhrRQ0fCxDvYNPCS/zeJjTx0Y7I7pZEqHjWsziYj2K5U6CWYyXXxSdZLkt/Hw9BbTeHr4pNifJb+Pg1TWrQbZw9GckP0w7Luz/AJpBWaK/lzTwDx0tnPFKHil2Z5HPj4Nb0U+V1poVMlqIjXvacLAexTImtqHVF9HDbeX6O5z0gikhTBETV6IyUoqLmOHJDKvFULNZNv8AUHz5vDLorDNiUdGJhomsyLvrV+H83FRv8oJfFQhbFivQYrhfSfaXhoYmDeR5osqZPHVnQrsPeh4n2n70ruMtcTGuYiyF6W6uRKK1IxoYYQvqV3NdHLSRcIpaK8o7aSVF1OOmsgAVIl3q9Kg1JW7ygt5JKi9G1rOVgWwgyURNFxWRSWf3dswLr5HCtgSg2uYZEKYd2tEMU/BrOekh1RCq023LatC5BRCNimkHaSU8cKtCAinFWBMwabVczZqM0TnxqyrPgjIWAimgiTHMqkvsdyf38bNcG7rY/m8M6QhVRJMUVKafVftAdW8n0t3n1BY7BYJJx+XgHj7nQFXBlGRHWO7qbg0IRcYzDESTRHDlOp/WkL+kSn4wsAXZbHsQyUDoLIwJCRd+gcTMQoutdAV2KiF0ba9jurTUbENodoPpfvH82i5E1ExENC80WcTSdNsCarZcbLPuLwL4KJ8Um7CFpf6eVw81Qb5LedEdG58pP2nqgbIY2noly8oplTMid3tVGQYZmYBwZ7q3FmtL5QfaTVaHk7nerUT5WXeB0fOb4Rz9av3du/Bud+Gq3TdbIAeirzarykupXnQES2TLMUrCw7/0hFdpPEtWE0yhRj42mETFP5V3SX7+1Z/8g+3qHSFKEiOrd3twuan45zG4myPZFkSnYh4r7rpKRLv60iXRnCQkjX6RZEpx50kBpsVIiXIlPxp4CSybHsRyJ0LPUs6w7c/zU12FBHiBLinyjROLoWe/LbB1QnvKn+NM6TbB9hL2+ijVq2A8q+0ptzyy4UkvNqiY5dqFgfY3MMB8Myq1vJHe8Wlaio5iHd05LccNEWWFetYT9KlRoBacKRkwaIiOpisqifKy7wKeiXyuNNCpku9Tj0C+lkWYJXRKW0XDXpEJbP1mo4kw8PteKfxU1FPQxwjq4E2aSxrzm+Ec/WrT0S+V1poVMl3qcfgohLIsxFuiUtouGlioa1/rQW9o2XRmqpz8NJEgOjdFbjrfYlVjQLT5BCuNoptpmKakmPc1G7CPEw6rgjfDPKoe1YtbypCA8cuUSinHRx9oxxwtnEsm2Gsy+JOOvSbAtN5Hg2tA7mc4u7VpxLzehdcYNSb7Fb4fg7SSUpmhd1EXXAQT69XCJKfZrkVebWDTY33DVBEUyrTMIMlc9p0k5R5aCyGS23dt6WQcidFhrsAQfBrsKNPABXFfkmi8fQs9ie2bynLeRPjqFZzaNoR7iVZdvtDszuuy3uEZ9yomMbLaMLrSpulmXjoYghk7FlpP6eTw89Wt5I73i0sTGw6uvaYhnpCTDDcWv9Iv0x8NRbzcGSONsmQrpTzonjqJ8rLvApwU+ddAOPiqzGxRB+zgSy3VSa6/Ob4Rz9atOCnzroBx8VWcwPJYDuyx1ecUCH8OekRNza/yqwvgg749S/DBx1ZYp843Div5k+KrNaTkw4drVbvwbnfh+DhI5E2Hm9GvjH9/g6R2s+PVs7DM8pZV5qef0Zu6MVK42kyLeSn4x+zI1XXivL9nLgomnmyacHOBpJU1wDEtnSIZeIcV7XQXQDeioddI2nZbqU1BRDiBaDCXFE/nETKmon4h0WWhxUzWSU2+Al9VwUsV3EX/ANL4NUWwI3nRHSt/KT9pVYFgDObZ3SXeyLzDOm2m0utgKCKbiVa3kjveLS+UH2k1Wh5O53q1E+Vl3gVFXEvEyqOy3kz+CdQVwtthtGXByoo4VNcErSQ7wPtzlebKaV5yiWCqbiy/7KiriXiZVHpbyZ/BOoIxO8422jTiZUJElRuukgNgl4iXIlW7bEuqecuNqvjn2rtWBaDmyzgBEuZEQse+qaZqYhryaV55Fu5ZIi49qghhGbsKw0Uvkok/BOoO6U3GARlwcqKmFE44SAApNSXMlW7a6J1JkoAUt0p9pE/BvsgM4hvrWvlJk5+ixBsJNx4rqb2/TEGwkmmhupv7+p+MOSkiSbHsiyU486V9xwlIiXKuuItZwf4nVM+LlL3e10ViWyKBjFx0rWZV30q5D+cak3+UUvjoTti2nosUxuDPtrwUMNBsoy0ORMvj1xVpaUTaW9oG0T2J/tLVFQl65p2iavbk0lXobrouuaRTVQzaohid3StkE9yaUUK66Lzhuq6qjmzInFUlxRaKLsK0jswiztcn91I3atvqUPym2OUngoISEC60mOKzVV3VorWse0PQIpxJOISYLQA8SOndkaywJctHFWDaZ2ap52VxGhbti3lchsrTCZ+1TcJCt6NlvMlejRSKklvA4OcFpGYHzg+zpmE54JvZ6G0LYjztOIBZiKzlPnqS5qKLsK0Tswiztcn929SN2tbynD5W2p49qghIQLjQ91V3V/CLG2bCuRDMSszbZC8oF4kyLXqmO92Pgr1THe7HwV6pjvdj4KdtGNZJmJc6tttwZEI5cN/WMNDWdGuQUNmIWCVDLKteqY73Y+CvVMd7sfBTMO7BRMIyq7bzrSigpz01DsDcaaG6Kb39y3//xAArEAEAAQMCBQMDBQEAAAAAAAABESEAMVFBgWEQcZGhIMFAsdEw8PFQkOH/2gAIAQEAAT8h/wAzD8jJQBq+yhQoDUgUYQzQZ/tx7Mo3qcZS6BfbzTgPsoNzJK/9FOx7FKuJFXY8q9joBkgKq2AWTzyDiHBGv9o+Nw+V+zys47KapiPCnc6uzI8D5t8ElSSYQ7HXFyX2GrXDjysLhTAAbdMDTJl8l9zpdc3wa+208BJI0WryBbrBaclOU2YvVGPAk8Ldy5QtBkeTe8lN2IbxIvJ6jpICcfmGDjbxEQl3hmuz4tohJIQyJ46cjtyAlt0UlRjDCdkePtfkUhlPMJ/Tzu0qSOSjm2MYsKNpRpbk4SwT+HFuI9f46vGF6ZZLnN4zw0/XO5IxoAn1WfyMlCOpZQsb0HoFf46VfZSt8+yCofUSj8Q+VuP0bzGtbbSoJozciiZWxh8vNb5UomDJZ4IniT1YaE3IieGeqWWZqCWoJMOr0IVcRhtu1CK4aCuu9q53gfZGdg8WZ0U3OFXvTi6TohR0g+U71k/3MQsvH6Mig0TBBIydbJH0F0yhZpcQDyCH2uDJL6sryxj9dMKMVdCB6dJDSkuKvUPhbjNPdqnGfS2XqPunrXTEkp/x5e3O8Q9DAJW5HJC7P8jzX2FcjQdepSkA5LFgABQOrRoP3N+y0wRKHBU/e4SQoCqmeL0GTJ0qP5aF26fMxaNoQYb/AGH82/1XxRwFemjkAFME2xjlT4mVrEFYraZ9TajSRnzaUQbyAYUmsdJlJp5zAJt4n6pxMrWEO9vyMpNwglPAOl5HkGew7jkvOQJoe5qHpJ0DEBTMO2LxAooUEHNUcbcNnEI12IGkpWG8thHO3SPBxLyHXbdCvP6NlUCZ3/KdZnqRKXBzBR516sqyaEYDzZ3ANaMvg5BdOsh1ueqk9jn7EACVoBdII9PB1oWA8liwiSVOrxoH2N+25YJQekJbWpGIVdvdBaRePdqQdp8LyBNnMKDxPQ+CVkHQiFA16ZJtCEoSnRoUpJ2NJb6B0DRE8r7JilJOxpLeSBExCJQVxVehrIbGUBScCPsF+TCRDtIfBcXMVJuxV89AQyPo4dFVsUG+Qe5nVkRs+iY7vK66ERrDAGVtHAcCaBoCDhbYKht3McdQMkUuda9HH2ANCbkRHHPULKk1CGgNZ1OgWrogsrJlhmYU12NHLpiYZM5YO5PFdUD45WUXQwoS4AgPd8IoNAvx0x8iuF5nZRIT3AeNgyAVV2uqtUNMZJLcxGqyi2fU835r0h8isD21UJSc4njb4UpwBlbrmmgRIqPCxDSBjCGXAnYEgqol0cpZbsh3RxtU2tGkuVh1xkGC9wHjbGTOwBlbSlyihJSer7/Rrxai/AScbRGGj7I5i6A3XIJeFwO61Fuuay8eleY13cPl5DbQcoxGV6xsnK0vqAOL2v6CQTqtXmI2VnCMsOU/K279lPCscLd35QtVleb12OrKz1nsSI2egpQUZNXL1s2hDSVRQnt05Aw5qCfWymhugkATyPm3IAIRw27uZrvaI81EbBl7QPYaDyNoGapmLKa3UeIBphO+YJEak2ONHSoFUc9LrHlI9kjbNEbMCDP4mPI2Vo0ZF1V3W13rIGn4s05QKe0x7FkJBSUMkqVBwULBgFURt1vzW4RHyDcRbadB7UT3G8ln1Z3Sbr9IoDjfc6E7neeXsoUKE+mkRTUqor0OfXDCLdcKEIYOOvWhQmBiL7moq6Fm9EPsP9Lf/9oADAMBAAIAAwAAABCSSSSSSSSSSSSSSSSSSSSSSSSSSSSSSSSSSSSSSSSSSSSSSSSSSSSSSSSSSSSSSSSSSSSSSSSSSSSSSSSSSSSSSSSSSSSSSSSSSSSSSSSSSSSSSSSSSSSSSSSSSSSSSSSSSSSSSSSSSSSSSSSSSSSSSSSSSSSSSSSSSSSSSSSSSSSSSSSSSSSSSSSSSSSSSSSSSSSSSSSSSSSSSSSSSSSSSSSSSSSSSSSSSSSSSSSSSSSSSSSSSSSSSSSSSSSSSSSSSSSSSSSSSSSSSSSSSSSSSSSSSSSSSSSSSSSSSSSSSSSSSSSSSSSSSSSSSSSSSSSSSSSSSSSSSSSSSSSSSSSSSSSSSSSSSSSSSSSSRACSSSSSSSSSSSSSSSSSSSSSSSSSSSfSSNsSaSSSSSSSSSSSSSSSSSSSSSSSSSZSYt3TuSSeMCXqRySSSSSSR4NSSSSSSSSaJt8fVSPRgKNuRySCSSSQRRRySSSSSSFn5tltsyaSGGYRJ3RgNswtqySSSSSSSSRuttVthyaSUnYRxySCCBSUSSSSSSSSSSZtt25t+SSzyCsOR8BzhySeCSSSSSSSSSWNsObtySQGWBxyOgGDqmRwdySSSSSSSSTAByYBmSSSSSSSSSSSSSSSSSSSSSSSSSSSSSSSSSSSSSSSSSSSSSSSSSSSSSSSSSSSSSSSSSSSSSSSSSSSSSSSSSSSSSSSSSSSSSSSSSSSSSSSSSSSSSSSSSSSSSSSSSSSSSSSSSSSSSSSSSSSSSSSSSSSSSSSSSSSSSSSSSSSSSSSSSSSSSSSSSSSSSSSSSSSSSSSSSSSSSSSSSSSSSSSSSSSSSSSSSSSSSSSSSSSSSSSSSSSSSSSSSSSSSSSSSSSSSSSSSSSSSSSSSSSSSSSSSSSSSSSSSSSSSSSSSSSSSSSSSSSSSSSSSSSSSSSSSSSSSSSSSSSSSSSSSSSSSSSSSSSSSSSSSSSSSSSSSSSSSSSSSSSSSSSSSSSSSSSSSSSSSSSSSSSSSSSSSSSSSSSSSSSSST/xAAqEQEAAQIDBwQDAQEAAAAAAAABABEhMRBBYZEgcbHwodFRgcEwQFCQ4f/aAAgBAwEBPxD/ADN2beTZt5Nm3kToD/XJ3pBA68Fr4vTgvfF6ZuDR/UoAOcvDB65gFYEVXnYHAxzsRiyhmjbhT1PtC+hU6OQ2pUhuGOZotJoBNBGWEqJtw2/w/GtzanpBRQaRFR2dnsbIIwq1OdPuYQdSvzp+dlHtBRqSiatcrVPzwWBxcZiak2bfKpo0iIGnAtQxYWsMkBRgJjs73SpppfMxHElAM0HpMDLEmLz+jh8n7fx+L6ZIK6v0SrRGlPiKCXaF/PdUysTgwnekZsRzvPA6xQKsdOBeK5gU9/TgBQ7YUEdb5ne7K609vWeM9IJAPmbNvJUrN8xef0RQKx+rBHXkkimik8n7YAVgS7vUg3wVIFFBGbU9clKXhQfYrMNnsJiU5ODFUKW9P0xTu0zZunnMFAawRMsDF6cGMLZoU9/TgRQbYFCks/k975WjKWuLeeM9ING/zO0sCL1Mxef0R0UoDZn5P2x0UofsMhvyeL65Y/xHQ8ibBDLxfT9PwnirK/iLQWKWr7IpUFHOjPndwLQMSFWYMlBVgpjs73ZVOKgfnvlApYnjPSYGWJMXn9EYhDcaWyEFSGhvv6xiECoRaXY3TVtGKcu9+XPUdR0OkJRMJsLp3u/TqmrThQzrCLAMidxErFzppa8Keh94W0KmrpDKFDM6pjlWlrKbXXJKlJiauS/QCNlY2TQBEWRyUlw3RtrWyGgtlgCpa5SjeGT/AMgRtrGyUwW/UslWs27czbtzNu3MdCu53iUNk27czbtzCIIQAUP9Lf/EACoRAQABAgQGAwADAAMAAAAAAAERIQAxYUFRcYEQkaHB8LEg0TBAUJDh/9oACAECAQE/EP8ArMBWC/mXq/mXq/mXq8+pKDun/L4kS7GK8iXO8SFdzR5lfxQ/bz0eznG/4Sf389XbAznfrvPnB13SCTmoTH/KQAwo++b2bcD0HP8A9K8FXDqbcoAZt6amLu6vzAg06mh0OLfljtMDjaqy9KYYK5uj28IcbAwmg5Y/Z4h+ZLjwmqGvFgztKGuQe8P2LWRasUKcljmHEt48NH5UzKXHzGaJWi46YUxl264tDDhnwCrZLI0FKyCDz5tOcCM8eiEFW6VEB3o/I4n5xpplIwoJ4a5/1xFIC7zKvCCLBByyjwj5tVIqrpcByzWa2O9IxWQgvcThRVwuutLM83gDnR/vBiqTxlPoLcHI0R1vVUqs2HbB4dJlHCT6r0/h+EZdH2ef1A4WGppjBY7Fy/O8Xxlluse2BkXgUCPBIbSGHqYMhxIwOak5TcAB4AwY1d8tjOehNwYJRLNIq89WmQYKUUguaWo4v2mnNuEESngamO2HE6UI3VrRSryDJmXjZO7inAwOqPHfZfjPyeN/rvGfXSzMsLkzx2S64GTEYDJGJvFxeVgkMAPtwJlp/eS7Hmr56OwzI5jU56ZgXitrHYxXkVzwsTICD5vvn1qTinDU88DnFSw4SmA3XAsl5lusf4Mg/GA4Qd3rSRShzR7/AAUGqbxED7WmFE7I3jJJQnNjgA5mPSm6LLjMML2JDNv5nZbaGFRJ3C/iXq2AZDvcL8ZYFMoAZtC0ZoCgp2N8xWJgJdNw0JEZpAc44LGcGAqI1013zvxtxEygBm0LPPgFJTI7biuNBLrJaCgONAOMjeMbbtJiO5vlgieobmTAB2DRxlPSlAFjgNud1CdARLwKrZIFULBfOGggUxZsXKKkCZhMuOya0cLi/wAYdxUfP+PHOEOy9dcb7AbMUMlrkAaV6PlAKuwVbwhXA2GB/Oatyp6ObU8jy0w/CgS2zLXrUZWgzB6PwUCiLxUT7WimKr3sFdUqT8gC5tsVpPYVTmEcW5oaDj7TTkX8zstvSgxJjxF6dSVRQeLbxlmVBeI92yDMxTtKHYg6+NuyoLxHu0V1HmhyKdGZxBWdA9nn1l430bz0PlPd5tjuvRLNs+v8ckMVDMSHtB3/AFPurXh0OeLlGjdQAlCVgJ1XQ3uPGI3t3HVlsiBMEZHmdRfxSHGinCZ5fgQtDgTg8kJymk3IgeRMCdW2W5nPQ2pMAqtwpVeVIamxa1q1OkxIlHEo4bY8S4VoE1OLVHkxtbh5Wq38zs6o8d9l+MsUmCXcIeYsHKINkU+MHMekyy2SGvGwq8AcwI7j2tQYJdwh5i4sgq8Rkj64iWYOVoF4SJQzYPssBMpRFVUoc6efSFjDV0loHMl5W8UH2MeUsgYEjaFNOGHEsEErZkWggnBiPthw/wAc+q6cT+GHOLEST8YKYni6HNgtvpSX5sYGXTXUauxq9u7BYEwABkYdTaU7xKHIr/4/NDnhNQdODJla0Mc0Hg+lzalTUxyBea8LePTV+UMinVPwYSnQQfyzqdGISlDgzcRAgRw6IBoj2sDggA4S/a8uhIhMJR3Q1wqI0rNsxjSuYdwZ8Jc5ZfAD5nWwkPZKwmL7dSilS0kiDSwzHBKO7fCokxWW0QjShjlV7C9RAn54NLBLXBHBNm1vHsRzjyZbkxpjFV02MSi1XfoYAJgmO6GuFSHeWtqpDSkw5YvZJuegvkGX+RkYhUoHZLSTDhFKLfzL3fzL3fzL3ZwqlREUaJoD3XbqTr0mQGm4rVyjUv5l7v5l7vTkkBlzhw1X3FrnKKub/wBlv//EACgQAQEAAQMEAgIBBQEAAAAAAAERIQAxQVFhEHGBIKFAkTBQkLHR4f/aAAgBAQABPxD/ABmJGKKGKo4ACq/STJkm9EnxUPQG7Mf3dlitiXmJmCLwV40/IC2rnPuKdyPP0A0VYIGI8iSevYfQgAcQgajkkPr3HgIBlCAG6uj1ndqpHxwZtlj/AHQeBl65zVxMOe2iWPiA4fwx/wBjzgTOdQ7A5WwGVQ50wYVQP4YA7td188kkWCyw2RDm5Ju0Fv7oNAHAAHjPQtRCwsbNA23DRRq7LBJt2gydi+/qK6xtTaZCoQVyGh+OhT3bL7B9ayAhtj2UZW8GB1hccXAbtguQHSAWQcY0w6pJgmdDSm3gBjeHEgvC4aM6tkCUlAAUrl9dYdWgM5BNlYXCeMOPhW0kN4DqSHZ3Uodxs7D62dmgOQcZgkhhu/8ATSxQtgO6u5MXbSYxOGVternFwZ1A/kgLinVVHBNBw9UHQvBJOe40YFVsBNg4Dq7H+v8AdQ+dH8r50AYKIZohkRKJrCr+AhsDsD7Tl4MESEN3r0RnfofoRIJRgZHvFNdcdBlWIFkuLpbGZDidAavbXWrraU97XQu08wiT4Q1+DxIB/vzi3jVQgZwjB4XGak/Sz4G4KO9VLDwql5Ub2dnomTjQbrzpZZUzi5LkzpeMhQU948CF66dVpyXtxgSfB8VilWAqvem2d2pOLgAkqTlU7/pIAKqIWFdtTC6g08iptV4RXfLi9ROHUHh0iuEEbR2ta30PITEW+LQAFVgbrn+sRYhN1KeoPHK28A3K9ium/kHbozOoV4C7GmZZXlpfRmBwAebpWzZ96SDF0A40fMJcXIewOs7Oh550rNjCjn6bpw2RMj3vlXJlOfyMT8aMgBANg8/IUpAv5/JoxvDWCXsj/nRoCDKoQnM104eCiI5shInsR+G3iKyxBhJ0BjHPbw4PFRyjAZKoB38VQqxgWkoGVxgN2Gop3eeTaEPJHuIdV5ulJioUnoN0bDTQcf6cJE0pS8ceBGWjgEkoGVxAMqhogXbwbGASTINUKHQ3hCGLQclZgNzjVa5oUQOTZIneOR0pvZY5A6IeiKb+MoTrMIblRk4ukIojcpKAKDajTmZ3a4CMgwWYIDpO+0ZkGbQpQFFTYuuxpmhzAkDhybfpxiByRcOpV5yJlXlqfRne5PR42ZtSOH3UHzqHopBKZOQhbSoslYI0yd4OjcfSiZwBVeANdKxun/I8nZMoz+Li/nRpBCibJ5+UoCDfz+bT0mU8oH412DU6ZW19K8dGTRaMpU3hej1UJhSRvQ4QHjFO2zP1xA3WZc+PaUkKRixYxDDjxV3ebFkINCagCkcNt1deb9BA83MWQg/DRgOCpNX/ANRrfRdJUzKRsQfD6d9tu54pGT0L+LVAxSEF+dJfnwZEKQJld/TtogeRUr1GDu+17VYUfAu5AcledcaoDqUEqIGOdQ1o8Vx0QB2GsZhWRWCFRMJ5b40jB8QEyPI+jQ6dQCBhqtDFHc6gtar4UeEDeEWR8NZWBCd3d6Bl41EG/UsWQ4hcEyR8K8RAF3NNkvm6KkieGBs91650OdQYCAdgD7RYAKqxIDG+7/HxGqcsUo1AOAy8nUOj/ipwBurwaHtw29pRSiRNcGxGEB2RvhoeYCG+7/HxGr94sYcLaAeoXRbfBDKh2ANFMdYhEn0H3pmcuAs7sZb1oJKiFEdkdOpGycoLdC1pu2gLD3hAp207GeWPgWwy8nUOh/fPLVDgANV3jNhs3kQOz9M4k5TAtGTKncUPGkQIMRIj9KWkCdR2jXstC0wYDcSbqR6rw9lNszz130I41uwuCcqcqr5iSagzlhnYDinTfqQzxsTawGo1UyuhgiE3ZhPoHvWfm9OvZRlJyYTWcBxVbu2q5RfCUjtoYUp1VrbZuQSzwytKFDi/MznbRC9WHEQCwLUMr4/0bwEuZlNYPuBjsBchpuumkHsHoOETk0p4TCzuKFQaXEANMRURfIFanQnR0lLbEdc3UNoAAAAaG3fIFAQwDCoCOh6Q2ZU3ICr0DNOuJrDuIslUT7hDGg6RUARpbTQRj6aiYD2hatlCqu66Pg2QJEuiIiiiJ3BJh1JZEBQEAiB60OxlUwRwiiA7iY0EBUCiO4mkHnLYVs0lVilxADQZ2UITSo2QjC9dHvt3AewW76CAH6kE0Qt10DIGQQpR9JMmS428F7EgACmymPOaoJe8sIkbsxnlJk7tnY4mDFMbipwKbFRuyw9vK8qv+S3/2Q==;clipPath=inset(0% 0% 0% 0% round 2%);" vertex="1" parent="1">
          <mxGeometry x="1689" y="565" width="512" height="256" as="geometry" />
        </mxCell>
        <mxCell id="TYMXvzNvSo3Lo1fEAk2X-35" style="edgeStyle=orthogonalEdgeStyle;rounded=0;orthogonalLoop=1;jettySize=auto;html=1;" edge="1" parent="1" source="TYMXvzNvSo3Lo1fEAk2X-31" target="TYMXvzNvSo3Lo1fEAk2X-30">
          <mxGeometry relative="1" as="geometry" />
        </mxCell>
        <mxCell id="TYMXvzNvSo3Lo1fEAk2X-31" value="YB&lt;br&gt;CLIENT" style="html=1;whiteSpace=wrap;strokeColor=#999999;fontSize=30;strokeWidth=2;" vertex="1" parent="1">
          <mxGeometry x="1840" y="964" width="210" height="140" as="geometry" />
        </mxCell>
        <mxCell id="TYMXvzNvSo3Lo1fEAk2X-32" value="( ADMINISTRATION )" style="text;strokeColor=none;align=center;fillColor=none;html=1;verticalAlign=middle;whiteSpace=wrap;rounded=0;fontSize=22;" vertex="1" parent="1">
          <mxGeometry x="1827.5" y="1108" width="230.5" height="30" as="geometry" />
        </mxCell>
        <mxCell id="TYMXvzNvSo3Lo1fEAk2X-36" value="" style="fontStyle=0;labelPosition=right;verticalLabelPosition=middle;align=left;verticalAlign=middle;spacingLeft=2;flipH=0;flipV=0;strokeColor=#0DB7ED;strokeWidth=2;" vertex="1" parent="1">
          <mxGeometry x="1311" y="1122" width="30" height="30" as="geometry" />
        </mxCell>
        <mxCell id="TYMXvzNvSo3Lo1fEAk2X-37" value="Potected&lt;br&gt;22" style="text;strokeColor=none;align=center;fillColor=none;html=1;verticalAlign=middle;whiteSpace=wrap;rounded=0;fontSize=22;" vertex="1" parent="1">
          <mxGeometry x="1342" y="1109" width="100" height="56" as="geometry" />
        </mxCell>
      </root>
    </mxGraphModel>
  </diagram>
</mxfile>
